<svg version="1.1" id="Capa_1" xmlns="http://www.w3.org/2000/svg" xmlns:xlink="http://www.w3.org/1999/xlink" x="0px" y="0px"
	 viewBox="0 0 200 195" style="enable-background:new 0 0 200 195;" xml:space="preserve">
<style type="text/css">
	.st0{fill:#FF5F00;}
	.st1{fill:#0099A8;}
	.st2{fill:#FFFFFF;stroke:#FFFFFF;stroke-width:0.9731;stroke-miterlimit:3.8637;}
	.st3{fill:#0099A8;stroke:#009A98;stroke-width:0.4144;stroke-miterlimit:3.8637;}
	.st4{fill:#1D1D1B;}
</style>
<g>
	<g>
		<g>
			<path class="st0" d="M167.3,57.7V139c0,3.3-2.9,6.2-6.2,6.2H52.5c-3.3,0-6.2-2.9-6.2-6.2V57.7H167.3L167.3,57.7z"/>
			<path class="st1" d="M64.5,134.5V123c18.6-0.4,23.8-3.6,23.8-16.2l0.2-49.1H120V107c0,6.9,1.6,10.9,5.8,13.3
				c3.8,2.4,8.7,4.2,16.2,4.4c0.7,0,1.3,0,1.8,0v9.8H64.5L64.5,134.5z"/>
			<path class="st2" d="M139.3,57.7v44.4c0,3.6,0.4,6,1.1,7.5c0.7,1.3,2,2,4,2c2.2,0,3.8-0.7,4.7-1.8c0.9-1.3,1.1-3.6,1.1-7.1v-5.5
				h12v5.5c0,7.3-1.6,12.7-5.3,15.8c-4.2,3.1-6.4,6.7-15.1,6.4c-8.9-0.2-14-2.7-18-5.8c-4-3.1-3.6-8.7-3.6-15.8c0,0,0-45.5,0.2-45.5
				L139.3,57.7L139.3,57.7z"/>
		</g>
		<path class="st3" d="M167.3,16v25.5c-8.4-0.9-20.6-0.9-25.3-6c-3.3-3.8-6.4-8.4-6.9-17.3h-14.7v22.6H88V24.6
			c0-5.8-2.4-6.2-8.4-6.2c-12.4,0-12.9-2.2-23.1,13.1l-3.1,4.9H32.5V15.8V6.2c0-3.3,2.9-6.2,6.2-6.2H161c3.3,0,6.2,2.9,6.2,6.2V16
			L167.3,16z"/>
	</g>
	<g>
		<path class="st4" d="M28.6,159.4H16.9v35.1h-5.3v-35.1H-0.2v-4.7h28.9V159.4z"/>
		<path class="st4" d="M73.5,194.2h-5.8l-2.9-8.7H48.4l-2.9,8.7H40l13.1-39.5h7.3L73.5,194.2z M63.3,180.9l-6.7-21.1l-6.7,21.1H63.3
			z"/>
		<path class="st4" d="M113.2,180.5c0,2.2-0.2,4.2-0.9,6s-1.6,3.3-2.7,4.4c-1.1,1.3-2.7,2.2-4.4,2.9c-1.8,0.7-3.8,1.1-6,1.1
			c-2.4,0-4.7-0.2-6.2-0.9c-1.8-0.7-3.1-1.6-4.2-2.7s-1.8-2.7-2.4-4.2c-0.4-1.6-0.7-3.6-0.7-5.5v-26.6H91v26.2c0,1.6,0.2,2.9,0.4,4
			c0.2,1.1,0.7,2.2,1.3,2.9c0.7,0.9,1.6,1.3,2.7,1.8c1.1,0.4,2.4,0.7,4,0.7c2.9,0,4.9-0.9,6.4-2.4c1.3-1.6,2-4,2-7.1v-26.2h5.3
			C113.2,154.7,113.2,180.5,113.2,180.5z"/>
		<path class="st4" d="M156.7,194.2h-6l-6-12.7c-0.4-0.9-0.9-1.8-1.3-2.4s-0.9-1.1-1.6-1.6c-0.4-0.4-1.1-0.7-1.8-0.9
			c-0.4,0-1.3,0-2,0h-2.4v17.5h-5.3v-39.5H141c2.2,0,4.2,0.2,6,0.7s3.1,1.1,4,2.2c1.1,0.9,1.8,2,2.4,3.3c0.4,1.3,0.7,2.7,0.7,4.2
			c0,1.3-0.2,2.4-0.4,3.6c-0.2,1.1-0.9,2-1.6,3.1c-0.7,0.9-1.6,1.8-2.7,2.4c-1.1,0.7-2.2,1.1-3.6,1.6c1.1,0.4,2,1.1,2.9,2
			s1.6,2.2,2.4,3.8L156.7,194.2z M148.1,165.6c0-2.2-0.7-3.8-2-4.7c-1.3-1.1-3.1-1.6-5.5-1.6h-5.1v12.9h4.4c1.3,0,2.4-0.2,3.3-0.4
			s2-0.7,2.7-1.3c0.7-0.7,1.3-1.3,1.8-2.2C148.1,167.6,148.1,166.7,148.1,165.6z"/>
		<path class="st4" d="M200,174.3c0,3.6-0.4,6.7-1.3,9.1c-0.9,2.7-2,4.7-3.3,6.4c-1.3,1.8-3.1,2.9-5.1,3.8c-2,0.9-4,1.3-6,1.3
			c-2.4,0-4.7-0.4-6.7-1.3s-3.6-2.2-4.7-4c-1.3-1.8-2.2-3.8-2.7-6.4c-0.7-2.4-0.9-5.3-0.9-8.4c0-3.6,0.4-6.7,1.3-9.1
			c0.9-2.7,2-4.7,3.3-6.4c1.3-1.8,3.1-2.9,4.9-3.8c2-0.9,4-1.3,6-1.3c2.4,0,4.7,0.4,6.7,1.3s3.6,2.2,4.7,4c1.3,1.8,2.2,3.8,2.9,6.2
			C199.8,168.3,200,171.2,200,174.3z M194.5,174.7c0-2.2-0.2-4.4-0.4-6.4c-0.4-2-0.9-3.6-1.8-4.9s-1.8-2.4-3.1-3.3
			c-1.3-0.7-2.7-1.1-4.4-1.1s-3.1,0.4-4.4,1.3s-2.2,2-3.1,3.3s-1.3,3.1-1.8,4.9c-0.4,2-0.7,4-0.7,6c0,2.4,0.2,4.4,0.4,6.4
			c0.4,2,0.9,3.6,1.8,4.9s1.8,2.4,3.1,3.3c1.3,0.7,2.7,1.1,4.4,1.1s3.1-0.4,4.4-1.3c1.3-0.9,2.2-2,3.1-3.3s1.3-3.1,1.8-4.9
			C194.2,178.7,194.5,176.7,194.5,174.7z"/>
	</g>
</g>
</svg>